<svg width="32" height="32" viewBox="0 0 32 32" fill="none" xmlns="http://www.w3.org/2000/svg">
<path d="M30.7219 29.3993L28.8072 27.4838L29.316 26.9748C29.6821 26.6086 29.6821 26.015 29.316 25.6488C28.95 25.2826 28.3565 25.2826 27.9905 25.6488L27.4816 26.1578L17.3255 15.9977L20.6641 12.6578C21.4717 13.4657 21.4609 13.4699 21.6045 13.554L21.8982 13.8477C22.2641 14.2139 22.8577 14.214 23.2237 13.8477C23.5203 13.551 23.5765 13.1048 23.3923 12.7515L27.6132 8.49515C25.092 16.5654 25.149 16.2149 25.149 16.8275C25.149 18.438 26.4609 19.7483 28.0734 19.7483C29.6853 19.7483 30.9965 18.4365 30.9965 16.824C30.9965 2.91864 31.0193 3.72882 30.9485 3.51445C30.6248 1.14004 27.7013 0.152882 26.0003 1.85459L19.2851 8.62595C18.926 8.41528 18.4571 8.46298 18.1491 8.77123C17.783 9.13738 17.783 9.73108 18.1491 10.0972L19.3609 11.3095L15.9999 14.6717L12.639 11.3095L13.8509 10.0972C14.2169 9.73102 14.2169 9.13732 13.8509 8.77117C13.5428 8.46292 13.074 8.41522 12.7149 8.6259L5.99704 1.85201C4.30149 0.155812 1.37594 1.13776 1.05158 3.51427C0.980702 3.7287 1.00349 2.8874 1.00349 16.824C1.00349 18.4365 2.31481 19.7483 3.92664 19.7483C5.53911 19.7483 6.85096 18.438 6.85096 16.8275C6.85096 16.2154 6.90667 16.5611 4.3869 8.49533L8.60766 12.7516C8.42354 13.105 8.47966 13.5511 8.77631 13.8478C9.14226 14.214 9.73579 14.214 10.1018 13.8478L10.3955 13.554C10.5489 13.4641 10.5431 13.4508 11.3359 12.6578L14.6745 15.9978L4.5183 26.1578L4.00947 25.6488C3.6434 25.2826 3.04999 25.2826 2.68392 25.6488C2.31791 26.015 2.31791 26.6086 2.68392 26.9748L3.19275 27.4838L1.278 29.3993C0.685693 29.9919 1.11333 31 1.94077 31C2.18066 31 2.42048 30.9085 2.60355 30.7254L4.5183 28.8099C4.99449 29.2863 5.20398 29.5935 5.6899 29.5935C6.51699 29.5935 6.94533 28.5858 6.35267 27.9929L5.84385 27.4838L16 17.3237L26.1562 27.4838L25.6473 27.9929C25.0551 28.5853 25.4825 29.5935 26.31 29.5935C26.7947 29.5935 26.9981 29.2936 27.4816 28.8098L29.3965 30.7254C29.5795 30.9085 29.8193 31 30.0592 31C30.8868 31 31.3141 29.9917 30.7219 29.3993ZM29.1219 16.824C29.1219 17.4024 28.6515 17.873 28.0734 17.873C27.4945 17.873 27.0236 17.404 27.0236 16.8275C27.0236 16.6006 26.8808 17.1261 29.1219 9.95219V16.824ZM27.3284 3.17801C27.9674 2.53877 29.087 2.97607 29.1009 3.88945C29.1059 4.181 28.9867 4.45028 28.8022 4.63341C28.7957 4.6398 26.1448 7.31314 22.0972 11.3949C22.041 11.3387 20.7288 10.026 20.6326 9.92969L27.3284 3.17801ZM3.93197 2.87539C4.22528 2.87539 4.48057 2.98697 4.66896 3.17538L11.3674 9.92975C11.2608 10.0364 9.99132 11.3063 9.90275 11.3949C3.00898 4.44313 3.2037 4.63939 3.19784 4.63359C2.55832 3.99827 3.00898 2.87539 3.93197 2.87539ZM4.97633 16.8275C4.97633 17.404 4.50541 17.873 3.92658 17.873C3.34839 17.873 2.878 17.4024 2.878 16.824V9.95219C5.11095 17.0998 4.97633 16.6012 4.97633 16.8275Z" fill="black"/>
</svg>
