<svg width="32" height="32" viewBox="0 0 32 32" fill="none" xmlns="http://www.w3.org/2000/svg">
<path d="M15.708 12.294C15.318 11.904 14.684 11.902 14.292 12.292L11 15.586L9.708 14.292C9.318 13.902 8.684 13.902 8.294 14.292C7.904 14.682 7.904 15.316 8.294 15.706L10.294 17.706C10.488 17.902 10.744 18 11 18C11.256 18 11.512 17.902 11.708 17.708L15.708 13.708C16.098 13.318 16.098 12.684 15.708 12.294Z" fill="black"/>
<path d="M15.708 20.294C15.318 19.904 14.684 19.902 14.292 20.292L11 23.586L9.708 22.294C9.318 21.904 8.684 21.904 8.294 22.294C7.904 22.684 7.904 23.318 8.294 23.708L10.294 25.708C10.488 25.902 10.744 26 11 26C11.256 26 11.512 25.902 11.708 25.708L15.708 21.708C16.098 21.318 16.098 20.684 15.708 20.294Z" fill="black"/>
<path d="M23 14H19C18.448 14 18 14.448 18 15C18 15.552 18.448 16 19 16H23C23.552 16 24 15.552 24 15C24 14.448 23.552 14 23 14Z" fill="black"/>
<path d="M23 22H19C18.448 22 18 22.448 18 23C18 23.552 18.448 24 19 24H23C23.552 24 24 23.552 24 23C24 22.448 23.552 22 23 22Z" fill="black"/>
<path d="M26 4H22V3C22 2.448 21.552 2 21 2H18.83C18.416 0.836 17.304 0 16 0C14.696 0 13.584 0.836 13.17 2H11C10.448 2 10 2.448 10 3V4H6C4.898 4 4 4.898 4 6V30C4 31.102 4.898 32 6 32H26C27.102 32 28 31.102 28 30V6C28 4.898 27.102 4 26 4ZM12 4H14C14.552 4 15 3.552 15 3C15 2.448 15.448 2 16 2C16.552 2 17 2.448 17 3C17 3.552 17.448 4 18 4H20V6H12V4ZM26 30H6V6H10V7C10 7.552 10.448 8 11 8H21C21.552 8 22 7.552 22 7V6H26V30Z" fill="black"/>
</svg>
