<svg width="32" height="32" viewBox="0 0 32 32" fill="none" xmlns="http://www.w3.org/2000/svg">
<path d="M18.0974 1.32044L14.5181 6.15736L12.4252 3.32404L12.4252 3.32401L12.4226 3.32072C12.2013 3.03796 11.8625 2.87242 11.5034 2.87164C11.1444 2.87086 10.8048 3.03492 10.5823 3.3167L10.5822 3.31665L10.5794 3.32048L2.79237 13.8507H2.5C1.58873 13.8507 0.85 14.5894 0.85 15.5007C0.85 16.4119 1.58873 17.1507 2.5 17.1507H10.85L10.85 18.0007L10.85 18.0009C10.8518 19.4636 12.0371 20.6489 13.4998 20.6507H13.5H28C29.0217 20.6507 29.85 21.479 29.85 22.5007C29.85 23.5224 29.0217 24.3507 28 24.3507H4.25C2.37223 24.3507 0.85 25.8729 0.85 27.7507C0.85 29.6285 2.37223 31.1507 4.25 31.1507H16C16.359 31.1507 16.65 30.8597 16.65 30.5007C16.65 30.1417 16.359 29.8507 16 29.8507H4.25C3.0902 29.8507 2.15 28.9105 2.15 27.7507C2.15 26.5909 3.0902 25.6507 4.25 25.6507H28C29.7397 25.6507 31.15 24.2404 31.15 22.5007C31.15 20.761 29.7397 19.3507 28 19.3507H13.5C12.7544 19.3507 12.15 18.7463 12.15 18.0007V17.1507H29.5C30.4113 17.1507 31.15 16.4119 31.15 15.5007C31.15 14.5894 30.4113 13.8507 29.5 13.8507H29.2076L19.9451 1.32398L19.9452 1.32395L19.9427 1.32083C19.7213 1.03743 19.382 0.871458 19.0224 0.870675C18.6628 0.869891 18.3228 1.03438 18.1002 1.31681L18.1001 1.31677L18.0974 1.32044ZM19.8758 5.6759L19.875 5.67537C19.4746 5.41188 18.9559 5.41188 18.5555 5.67537L18.5549 5.67576L17.6333 6.28864L16.6575 5.45209L19.018 2.25656L21.6709 5.84527L20.8608 6.3334L19.8758 5.6759ZM15.8833 6.50043L16.8564 7.33408L16.8564 7.33409L16.858 7.33541C17.2652 7.67474 17.8469 7.70661 18.2887 7.41396C18.2891 7.41368 18.2896 7.4134 18.29 7.41313L19.235 6.81174L20.1967 7.45439L20.1977 7.45509C20.3929 7.58314 20.6214 7.65114 20.8548 7.65067H20.8549C21.0709 7.6501 21.2829 7.59203 21.4691 7.48244L21.4704 7.48164L22.447 6.8931L27.5906 13.8507H20.2076L15.3285 7.25068L15.8833 6.50043ZM14.7778 8.69136L18.5911 13.8507H12.15V13.5007C12.15 13.1417 11.859 12.8507 11.5 12.8507C11.141 12.8507 10.85 13.1417 10.85 13.5007V13.8507H4.40842L8.38391 8.47281L9.29203 9.24918L9.29237 9.24948C9.68395 9.58223 10.2484 9.61597 10.6768 9.33223L10.6774 9.33182L11.5002 8.78107L12.3758 9.36497L12.376 9.36512C12.746 9.61087 13.2242 9.62227 13.6054 9.39443L13.6056 9.39431L14.7778 8.69136ZM29.85 15.5007C29.85 15.694 29.6933 15.8507 29.5 15.8507H12.15V15.1507H29.5C29.6933 15.1507 29.85 15.3074 29.85 15.5007ZM9.15677 7.42732L11.5 4.25653L14.0032 7.64301L13.0201 8.23277L12.1379 7.64601C12.1379 7.64599 12.1379 7.64597 12.1378 7.64594C11.7519 7.3877 11.2483 7.38768 10.8623 7.64587C10.8622 7.64592 10.8621 7.64596 10.8621 7.64601L10.0486 8.18801L9.15677 7.42732ZM2.5 15.8507C2.3067 15.8507 2.15 15.694 2.15 15.5007C2.15 15.3074 2.3067 15.1507 2.5 15.1507H10.85V15.8507H2.5Z" fill="black" stroke="black" stroke-width="0.3"/>
<path d="M11.4999 12.1507C11.8589 12.1507 12.1499 11.8596 12.1499 11.5007V11.0007C12.1499 10.6417 11.8589 10.3507 11.4999 10.3507C11.141 10.3507 10.8499 10.6417 10.8499 11.0007V11.5007C10.8499 11.8596 11.141 12.1507 11.4999 12.1507Z" fill="black" stroke="black" stroke-width="0.3"/>
<path d="M19.0001 31.1507C19.3591 31.1507 19.6501 30.8597 19.6501 30.5007C19.6501 30.1417 19.3591 29.8507 19.0001 29.8507H18.0001C17.6411 29.8507 17.3501 30.1417 17.3501 30.5007C17.3501 30.8597 17.6411 31.1507 18.0001 31.1507H19.0001Z" fill="black" stroke="black" stroke-width="0.3"/>
</svg>
